<svg id="visual" viewBox="0 0 720 720" width="720" height="720" xmlns="http://www.w3.org/2000/svg" xmlns:xlink="http://www.w3.org/1999/xlink" version="1.1"><path d="M0 604L17.2 601.3C34.3 598.7 68.7 593.3 103 583.2C137.3 573 171.7 558 206 556.7C240.3 555.3 274.7 567.7 308.8 555.5C343 543.3 377 506.7 411.2 501C445.3 495.3 479.7 520.7 514 531.2C548.3 541.7 582.7 537.3 617 526C651.3 514.7 685.7 496.3 702.8 487.2L720 478L720 721L702.8 721C685.7 721 651.3 721 617 721C582.7 721 548.3 721 514 721C479.7 721 445.3 721 411.2 721C377 721 343 721 308.8 721C274.7 721 240.3 721 206 721C171.7 721 137.3 721 103 721C68.7 721 34.3 721 17.2 721L0 721Z" fill="#FFFFFF" stroke-linecap="round" stroke-linejoin="miter"></path></svg>