<svg id="visual" viewBox="0 0 1200 90" width="1200" height="90" xmlns="http://www.w3.org/2000/svg" xmlns:xlink="http://www.w3.org/1999/xlink" version="1.1"><path d="M0 41L40 36.7C80 32.3 160 23.7 240 24.7C320 25.7 400 36.3 480 36.2C560 36 640 25 720 24.7C800 24.3 880 34.7 960 34.5C1040 34.3 1120 23.7 1160 18.3L1200 13L1200 91L1160 91C1120 91 1040 91 960 91C880 91 800 91 720 91C640 91 560 91 480 91C400 91 320 91 240 91C160 91 80 91 40 91L0 91Z" fill="#FDC435" stroke-linecap="round" stroke-linejoin="miter"></path></svg>