<svg id="visual" viewBox="0 0 720 720" width="720" height="720" xmlns="http://www.w3.org/2000/svg" xmlns:xlink="http://www.w3.org/1999/xlink" version="1.1"><path d="M116 0L118.7 17.2C121.3 34.3 126.7 68.7 136.8 103C147 137.3 162 171.7 163.3 206C164.7 240.3 152.3 274.7 164.5 308.8C176.7 343 213.3 377 219 411.2C224.7 445.3 199.3 479.7 188.8 514C178.3 548.3 182.7 582.7 194 617C205.3 651.3 223.7 685.7 232.8 702.8L242 720L0 720L0 702.8C0 685.7 0 651.3 0 617C0 582.7 0 548.3 0 514C0 479.7 0 445.3 0 411.2C0 377 0 343 0 308.8C0 274.7 0 240.3 0 206C0 171.7 0 137.3 0 103C0 68.7 0 34.3 0 17.2L0 0Z" fill="#FFFFFF" stroke-linecap="round" stroke-linejoin="miter"></path></svg>